<svg xmlns="http://www.w3.org/2000/svg" xmlns:xlink="http://www.w3.org/1999/xlink" width="92" height="92" viewBox="0 0 92 92">
  <g id="Componente_1_60" data-name="Componente 1 – 60" >
    <path id="Icon_awesome-stop-circle" data-name="Icon awesome-stop-circle" d="M40.563.563a40,40,0,1,0,40,40A39.993,39.993,0,0,0,40.563.563Zm15.484,52.9a2.588,2.588,0,0,1-2.581,2.581H27.659a2.588,2.588,0,0,1-2.581-2.581V27.659a2.588,2.588,0,0,1,2.581-2.581H53.466a2.588,2.588,0,0,1,2.581,2.581Z"  fill="#d9391e"/>
    <path id="Icon_awesome-stop-circle-2" data-name="Icon awesome-stop-circle" d="M56.046,53.466a2.588,2.588,0,0,1-2.581,2.581H27.659a2.588,2.588,0,0,1-2.581-2.581V27.659a2.588,2.588,0,0,1,2.581-2.581H53.466a2.588,2.588,0,0,1,2.581,2.581Z"  fill="#fff"/>
  </g>
</svg>
