<svg id="Componente_2_119" data-name="Componente 2 – 119" xmlns="http://www.w3.org/2000/svg" width="32" height="36.72" viewBox="0 0 32 36.72">
  <path id="Icon_awesome-arrow-alt-circle-left" data-name="Icon awesome-arrow-alt-circle-left" d="M16,32A16,16,0,1,1,32,16,16,16,0,0,1,16,32Z" transform="translate(32 36.72) rotate(180)" fill="#d9391e"/>
  <path id="Tracciato_18" data-name="Tracciato 18" d="M14.972,2.41a4.093,4.093,0,0,0-2.994,1.048V.4a.4.4,0,0,0-.4-.4H10.31a.4.4,0,0,0-.4.4V3.457A4.094,4.094,0,0,0,6.917,2.41,9.047,9.047,0,0,0,0,5.925,9.047,9.047,0,0,0,6.917,9.441,3.873,3.873,0,0,0,10.29,7.954a3.454,3.454,0,0,0,.655-2.029A3.454,3.454,0,0,0,11.6,7.954a3.873,3.873,0,0,0,3.373,1.487,9.047,9.047,0,0,0,6.917-3.516A9.047,9.047,0,0,0,14.972,2.41" transform="translate(5.044 -0.001)" fill="#ffde59"/>
</svg>
